<svg width="712" height="127" xmlns="http://www.w3.org/2000/svg" id="typograssy"><style>#typograssy #text-pixels{animation:step 9200ms steps(92) infinite;}@keyframes step{to{transform:translateX(-1196px);}}#typograssy .pixel{width:10px;height:10px;rx:2px;ry:2px;stroke:rgba(27,31,35,0.06);stroke-width:2px;}#typograssy text{font-family:monospace;}#typograssy .l0{fill:#002642;}#typograssy .l1{fill:#0077cc;}#typograssy .l2{fill:#44aaff;}#typograssy .l3{fill:#88ccff;}#typograssy .l4{fill:#bbddff;}</style><rect width="712" height="127" stroke="#ffffff" fill="#000000"></rect><svg x="13" y="13" width="686" height="101"><g><rect class="pixel l0" x="0" y="0"></rect><rect class="pixel l0" x="0" y="13"></rect><rect class="pixel l0" x="0" y="26"></rect><rect class="pixel l0" x="0" y="39"></rect><rect class="pixel l0" x="0" y="52"></rect><rect class="pixel l0" x="0" y="65"></rect><rect class="pixel l0" x="0" y="78"></rect><rect class="pixel l0" x="13" y="0"></rect><rect class="pixel l0" x="13" y="13"></rect><rect class="pixel l0" x="13" y="26"></rect><rect class="pixel l0" x="13" y="39"></rect><rect class="pixel l0" x="13" y="52"></rect><rect class="pixel l0" x="13" y="65"></rect><rect class="pixel l0" x="13" y="78"></rect><rect class="pixel l0" x="26" y="0"></rect><rect class="pixel l0" x="26" y="13"></rect><rect class="pixel l0" x="26" y="26"></rect><rect class="pixel l0" x="26" y="39"></rect><rect class="pixel l0" x="26" y="52"></rect><rect class="pixel l0" x="26" y="65"></rect><rect class="pixel l0" x="26" y="78"></rect><rect class="pixel l0" x="39" y="0"></rect><rect class="pixel l0" x="39" y="13"></rect><rect class="pixel l0" x="39" y="26"></rect><rect class="pixel l0" x="39" y="39"></rect><rect class="pixel l0" x="39" y="52"></rect><rect class="pixel l0" x="39" y="65"></rect><rect class="pixel l0" x="39" y="78"></rect><rect class="pixel l0" x="52" y="0"></rect><rect class="pixel l0" x="52" y="13"></rect><rect class="pixel l0" x="52" y="26"></rect><rect class="pixel l0" x="52" y="39"></rect><rect class="pixel l0" x="52" y="52"></rect><rect class="pixel l0" x="52" y="65"></rect><rect class="pixel l0" x="52" y="78"></rect><rect class="pixel l0" x="65" y="0"></rect><rect class="pixel l0" x="65" y="13"></rect><rect class="pixel l0" x="65" y="26"></rect><rect class="pixel l0" x="65" y="39"></rect><rect class="pixel l0" x="65" y="52"></rect><rect class="pixel l0" x="65" y="65"></rect><rect class="pixel l0" x="65" y="78"></rect><rect class="pixel l0" x="78" y="0"></rect><rect class="pixel l0" x="78" y="13"></rect><rect class="pixel l0" x="78" y="26"></rect><rect class="pixel l0" x="78" y="39"></rect><rect class="pixel l0" x="78" y="52"></rect><rect class="pixel l0" x="78" y="65"></rect><rect class="pixel l0" x="78" y="78"></rect><rect class="pixel l0" x="91" y="0"></rect><rect class="pixel l0" x="91" y="13"></rect><rect class="pixel l0" x="91" y="26"></rect><rect class="pixel l0" x="91" y="39"></rect><rect class="pixel l0" x="91" y="52"></rect><rect class="pixel l0" x="91" y="65"></rect><rect class="pixel l0" x="91" y="78"></rect><rect class="pixel l0" x="104" y="0"></rect><rect class="pixel l0" x="104" y="13"></rect><rect class="pixel l0" x="104" y="26"></rect><rect class="pixel l0" x="104" y="39"></rect><rect class="pixel l0" x="104" y="52"></rect><rect class="pixel l0" x="104" y="65"></rect><rect class="pixel l0" x="104" y="78"></rect><rect class="pixel l0" x="117" y="0"></rect><rect class="pixel l0" x="117" y="13"></rect><rect class="pixel l0" x="117" y="26"></rect><rect class="pixel l0" x="117" y="39"></rect><rect class="pixel l0" x="117" y="52"></rect><rect class="pixel l0" x="117" y="65"></rect><rect class="pixel l0" x="117" y="78"></rect><rect class="pixel l0" x="130" y="0"></rect><rect class="pixel l0" x="130" y="13"></rect><rect class="pixel l0" x="130" y="26"></rect><rect class="pixel l0" x="130" y="39"></rect><rect class="pixel l0" x="130" y="52"></rect><rect class="pixel l0" x="130" y="65"></rect><rect class="pixel l0" x="130" y="78"></rect><rect class="pixel l0" x="143" y="0"></rect><rect class="pixel l0" x="143" y="13"></rect><rect class="pixel l0" x="143" y="26"></rect><rect class="pixel l0" x="143" y="39"></rect><rect class="pixel l0" x="143" y="52"></rect><rect class="pixel l0" x="143" y="65"></rect><rect class="pixel l0" x="143" y="78"></rect><rect class="pixel l0" x="156" y="0"></rect><rect class="pixel l0" x="156" y="13"></rect><rect class="pixel l0" x="156" y="26"></rect><rect class="pixel l0" x="156" y="39"></rect><rect class="pixel l0" x="156" y="52"></rect><rect class="pixel l0" x="156" y="65"></rect><rect class="pixel l0" x="156" y="78"></rect><rect class="pixel l0" x="169" y="0"></rect><rect class="pixel l0" x="169" y="13"></rect><rect class="pixel l0" x="169" y="26"></rect><rect class="pixel l0" x="169" y="39"></rect><rect class="pixel l0" x="169" y="52"></rect><rect class="pixel l0" x="169" y="65"></rect><rect class="pixel l0" x="169" y="78"></rect><rect class="pixel l0" x="182" y="0"></rect><rect class="pixel l0" x="182" y="13"></rect><rect class="pixel l0" x="182" y="26"></rect><rect class="pixel l0" x="182" y="39"></rect><rect class="pixel l0" x="182" y="52"></rect><rect class="pixel l0" x="182" y="65"></rect><rect class="pixel l0" x="182" y="78"></rect><rect class="pixel l0" x="195" y="0"></rect><rect class="pixel l0" x="195" y="13"></rect><rect class="pixel l0" x="195" y="26"></rect><rect class="pixel l0" x="195" y="39"></rect><rect class="pixel l0" x="195" y="52"></rect><rect class="pixel l0" x="195" y="65"></rect><rect class="pixel l0" x="195" y="78"></rect><rect class="pixel l0" x="208" y="0"></rect><rect class="pixel l0" x="208" y="13"></rect><rect class="pixel l0" x="208" y="26"></rect><rect class="pixel l0" x="208" y="39"></rect><rect class="pixel l0" x="208" y="52"></rect><rect class="pixel l0" x="208" y="65"></rect><rect class="pixel l0" x="208" y="78"></rect><rect class="pixel l0" x="221" y="0"></rect><rect class="pixel l0" x="221" y="13"></rect><rect class="pixel l0" x="221" y="26"></rect><rect class="pixel l0" x="221" y="39"></rect><rect class="pixel l0" x="221" y="52"></rect><rect class="pixel l0" x="221" y="65"></rect><rect class="pixel l0" x="221" y="78"></rect><rect class="pixel l0" x="234" y="0"></rect><rect class="pixel l0" x="234" y="13"></rect><rect class="pixel l0" x="234" y="26"></rect><rect class="pixel l0" x="234" y="39"></rect><rect class="pixel l0" x="234" y="52"></rect><rect class="pixel l0" x="234" y="65"></rect><rect class="pixel l0" x="234" y="78"></rect><rect class="pixel l0" x="247" y="0"></rect><rect class="pixel l0" x="247" y="13"></rect><rect class="pixel l0" x="247" y="26"></rect><rect class="pixel l0" x="247" y="39"></rect><rect class="pixel l0" x="247" y="52"></rect><rect class="pixel l0" x="247" y="65"></rect><rect class="pixel l0" x="247" y="78"></rect><rect class="pixel l0" x="260" y="0"></rect><rect class="pixel l0" x="260" y="13"></rect><rect class="pixel l0" x="260" y="26"></rect><rect class="pixel l0" x="260" y="39"></rect><rect class="pixel l0" x="260" y="52"></rect><rect class="pixel l0" x="260" y="65"></rect><rect class="pixel l0" x="260" y="78"></rect><rect class="pixel l0" x="273" y="0"></rect><rect class="pixel l0" x="273" y="13"></rect><rect class="pixel l0" x="273" y="26"></rect><rect class="pixel l0" x="273" y="39"></rect><rect class="pixel l0" x="273" y="52"></rect><rect class="pixel l0" x="273" y="65"></rect><rect class="pixel l0" x="273" y="78"></rect><rect class="pixel l0" x="286" y="0"></rect><rect class="pixel l0" x="286" y="13"></rect><rect class="pixel l0" x="286" y="26"></rect><rect class="pixel l0" x="286" y="39"></rect><rect class="pixel l0" x="286" y="52"></rect><rect class="pixel l0" x="286" y="65"></rect><rect class="pixel l0" x="286" y="78"></rect><rect class="pixel l0" x="299" y="0"></rect><rect class="pixel l0" x="299" y="13"></rect><rect class="pixel l0" x="299" y="26"></rect><rect class="pixel l0" x="299" y="39"></rect><rect class="pixel l0" x="299" y="52"></rect><rect class="pixel l0" x="299" y="65"></rect><rect class="pixel l0" x="299" y="78"></rect><rect class="pixel l0" x="312" y="0"></rect><rect class="pixel l0" x="312" y="13"></rect><rect class="pixel l0" x="312" y="26"></rect><rect class="pixel l0" x="312" y="39"></rect><rect class="pixel l0" x="312" y="52"></rect><rect class="pixel l0" x="312" y="65"></rect><rect class="pixel l0" x="312" y="78"></rect><rect class="pixel l0" x="325" y="0"></rect><rect class="pixel l0" x="325" y="13"></rect><rect class="pixel l0" x="325" y="26"></rect><rect class="pixel l0" x="325" y="39"></rect><rect class="pixel l0" x="325" y="52"></rect><rect class="pixel l0" x="325" y="65"></rect><rect class="pixel l0" x="325" y="78"></rect><rect class="pixel l0" x="338" y="0"></rect><rect class="pixel l0" x="338" y="13"></rect><rect class="pixel l0" x="338" y="26"></rect><rect class="pixel l0" x="338" y="39"></rect><rect class="pixel l0" x="338" y="52"></rect><rect class="pixel l0" x="338" y="65"></rect><rect class="pixel l0" x="338" y="78"></rect><rect class="pixel l0" x="351" y="0"></rect><rect class="pixel l0" x="351" y="13"></rect><rect class="pixel l0" x="351" y="26"></rect><rect class="pixel l0" x="351" y="39"></rect><rect class="pixel l0" x="351" y="52"></rect><rect class="pixel l0" x="351" y="65"></rect><rect class="pixel l0" x="351" y="78"></rect><rect class="pixel l0" x="364" y="0"></rect><rect class="pixel l0" x="364" y="13"></rect><rect class="pixel l0" x="364" y="26"></rect><rect class="pixel l0" x="364" y="39"></rect><rect class="pixel l0" x="364" y="52"></rect><rect class="pixel l0" x="364" y="65"></rect><rect class="pixel l0" x="364" y="78"></rect><rect class="pixel l0" x="377" y="0"></rect><rect class="pixel l0" x="377" y="13"></rect><rect class="pixel l0" x="377" y="26"></rect><rect class="pixel l0" x="377" y="39"></rect><rect class="pixel l0" x="377" y="52"></rect><rect class="pixel l0" x="377" y="65"></rect><rect class="pixel l0" x="377" y="78"></rect><rect class="pixel l0" x="390" y="0"></rect><rect class="pixel l0" x="390" y="13"></rect><rect class="pixel l0" x="390" y="26"></rect><rect class="pixel l0" x="390" y="39"></rect><rect class="pixel l0" x="390" y="52"></rect><rect class="pixel l0" x="390" y="65"></rect><rect class="pixel l0" x="390" y="78"></rect><rect class="pixel l0" x="403" y="0"></rect><rect class="pixel l0" x="403" y="13"></rect><rect class="pixel l0" x="403" y="26"></rect><rect class="pixel l0" x="403" y="39"></rect><rect class="pixel l0" x="403" y="52"></rect><rect class="pixel l0" x="403" y="65"></rect><rect class="pixel l0" x="403" y="78"></rect><rect class="pixel l0" x="416" y="0"></rect><rect class="pixel l0" x="416" y="13"></rect><rect class="pixel l0" x="416" y="26"></rect><rect class="pixel l0" x="416" y="39"></rect><rect class="pixel l0" x="416" y="52"></rect><rect class="pixel l0" x="416" y="65"></rect><rect class="pixel l0" x="416" y="78"></rect><rect class="pixel l0" x="429" y="0"></rect><rect class="pixel l0" x="429" y="13"></rect><rect class="pixel l0" x="429" y="26"></rect><rect class="pixel l0" x="429" y="39"></rect><rect class="pixel l0" x="429" y="52"></rect><rect class="pixel l0" x="429" y="65"></rect><rect class="pixel l0" x="429" y="78"></rect><rect class="pixel l0" x="442" y="0"></rect><rect class="pixel l0" x="442" y="13"></rect><rect class="pixel l0" x="442" y="26"></rect><rect class="pixel l0" x="442" y="39"></rect><rect class="pixel l0" x="442" y="52"></rect><rect class="pixel l0" x="442" y="65"></rect><rect class="pixel l0" x="442" y="78"></rect><rect class="pixel l0" x="455" y="0"></rect><rect class="pixel l0" x="455" y="13"></rect><rect class="pixel l0" x="455" y="26"></rect><rect class="pixel l0" x="455" y="39"></rect><rect class="pixel l0" x="455" y="52"></rect><rect class="pixel l0" x="455" y="65"></rect><rect class="pixel l0" x="455" y="78"></rect><rect class="pixel l0" x="468" y="0"></rect><rect class="pixel l0" x="468" y="13"></rect><rect class="pixel l0" x="468" y="26"></rect><rect class="pixel l0" x="468" y="39"></rect><rect class="pixel l0" x="468" y="52"></rect><rect class="pixel l0" x="468" y="65"></rect><rect class="pixel l0" x="468" y="78"></rect><rect class="pixel l0" x="481" y="0"></rect><rect class="pixel l0" x="481" y="13"></rect><rect class="pixel l0" x="481" y="26"></rect><rect class="pixel l0" x="481" y="39"></rect><rect class="pixel l0" x="481" y="52"></rect><rect class="pixel l0" x="481" y="65"></rect><rect class="pixel l0" x="481" y="78"></rect><rect class="pixel l0" x="494" y="0"></rect><rect class="pixel l0" x="494" y="13"></rect><rect class="pixel l0" x="494" y="26"></rect><rect class="pixel l0" x="494" y="39"></rect><rect class="pixel l0" x="494" y="52"></rect><rect class="pixel l0" x="494" y="65"></rect><rect class="pixel l0" x="494" y="78"></rect><rect class="pixel l0" x="507" y="0"></rect><rect class="pixel l0" x="507" y="13"></rect><rect class="pixel l0" x="507" y="26"></rect><rect class="pixel l0" x="507" y="39"></rect><rect class="pixel l0" x="507" y="52"></rect><rect class="pixel l0" x="507" y="65"></rect><rect class="pixel l0" x="507" y="78"></rect><rect class="pixel l0" x="520" y="0"></rect><rect class="pixel l0" x="520" y="13"></rect><rect class="pixel l0" x="520" y="26"></rect><rect class="pixel l0" x="520" y="39"></rect><rect class="pixel l0" x="520" y="52"></rect><rect class="pixel l0" x="520" y="65"></rect><rect class="pixel l0" x="520" y="78"></rect><rect class="pixel l0" x="533" y="0"></rect><rect class="pixel l0" x="533" y="13"></rect><rect class="pixel l0" x="533" y="26"></rect><rect class="pixel l0" x="533" y="39"></rect><rect class="pixel l0" x="533" y="52"></rect><rect class="pixel l0" x="533" y="65"></rect><rect class="pixel l0" x="533" y="78"></rect><rect class="pixel l0" x="546" y="0"></rect><rect class="pixel l0" x="546" y="13"></rect><rect class="pixel l0" x="546" y="26"></rect><rect class="pixel l0" x="546" y="39"></rect><rect class="pixel l0" x="546" y="52"></rect><rect class="pixel l0" x="546" y="65"></rect><rect class="pixel l0" x="546" y="78"></rect><rect class="pixel l0" x="559" y="0"></rect><rect class="pixel l0" x="559" y="13"></rect><rect class="pixel l0" x="559" y="26"></rect><rect class="pixel l0" x="559" y="39"></rect><rect class="pixel l0" x="559" y="52"></rect><rect class="pixel l0" x="559" y="65"></rect><rect class="pixel l0" x="559" y="78"></rect><rect class="pixel l0" x="572" y="0"></rect><rect class="pixel l0" x="572" y="13"></rect><rect class="pixel l0" x="572" y="26"></rect><rect class="pixel l0" x="572" y="39"></rect><rect class="pixel l0" x="572" y="52"></rect><rect class="pixel l0" x="572" y="65"></rect><rect class="pixel l0" x="572" y="78"></rect><rect class="pixel l0" x="585" y="0"></rect><rect class="pixel l0" x="585" y="13"></rect><rect class="pixel l0" x="585" y="26"></rect><rect class="pixel l0" x="585" y="39"></rect><rect class="pixel l0" x="585" y="52"></rect><rect class="pixel l0" x="585" y="65"></rect><rect class="pixel l0" x="585" y="78"></rect><rect class="pixel l0" x="598" y="0"></rect><rect class="pixel l0" x="598" y="13"></rect><rect class="pixel l0" x="598" y="26"></rect><rect class="pixel l0" x="598" y="39"></rect><rect class="pixel l0" x="598" y="52"></rect><rect class="pixel l0" x="598" y="65"></rect><rect class="pixel l0" x="598" y="78"></rect><rect class="pixel l0" x="611" y="0"></rect><rect class="pixel l0" x="611" y="13"></rect><rect class="pixel l0" x="611" y="26"></rect><rect class="pixel l0" x="611" y="39"></rect><rect class="pixel l0" x="611" y="52"></rect><rect class="pixel l0" x="611" y="65"></rect><rect class="pixel l0" x="611" y="78"></rect><rect class="pixel l0" x="624" y="0"></rect><rect class="pixel l0" x="624" y="13"></rect><rect class="pixel l0" x="624" y="26"></rect><rect class="pixel l0" x="624" y="39"></rect><rect class="pixel l0" x="624" y="52"></rect><rect class="pixel l0" x="624" y="65"></rect><rect class="pixel l0" x="624" y="78"></rect><rect class="pixel l0" x="637" y="0"></rect><rect class="pixel l0" x="637" y="13"></rect><rect class="pixel l0" x="637" y="26"></rect><rect class="pixel l0" x="637" y="39"></rect><rect class="pixel l0" x="637" y="52"></rect><rect class="pixel l0" x="637" y="65"></rect><rect class="pixel l0" x="637" y="78"></rect><rect class="pixel l0" x="650" y="0"></rect><rect class="pixel l0" x="650" y="13"></rect><rect class="pixel l0" x="650" y="26"></rect><rect class="pixel l0" x="650" y="39"></rect><rect class="pixel l0" x="650" y="52"></rect><rect class="pixel l0" x="650" y="65"></rect><rect class="pixel l0" x="650" y="78"></rect><rect class="pixel l0" x="663" y="0"></rect><rect class="pixel l0" x="663" y="13"></rect><rect class="pixel l0" x="663" y="26"></rect><rect class="pixel l0" x="663" y="39"></rect><rect class="pixel l0" x="663" y="52"></rect><rect class="pixel l0" x="663" y="65"></rect><rect class="pixel l0" x="663" y="78"></rect><rect class="pixel l0" x="676" y="0"></rect><rect class="pixel l0" x="676" y="13"></rect><rect class="pixel l0" x="676" y="26"></rect><rect class="pixel l0" x="676" y="39"></rect><rect class="pixel l0" x="676" y="52"></rect><rect class="pixel l0" x="676" y="65"></rect><rect class="pixel l0" x="676" y="78"></rect></g><g id="text-pixels"><rect class="pixel l1" x="13" y="0"></rect><rect class="pixel l1" x="1209" y="0"></rect><rect class="pixel l2" x="13" y="13"></rect><rect class="pixel l2" x="1209" y="13"></rect><rect class="pixel l2" x="13" y="26"></rect><rect class="pixel l2" x="1209" y="26"></rect><rect class="pixel l1" x="13" y="39"></rect><rect class="pixel l1" x="1209" y="39"></rect><rect class="pixel l3" x="13" y="52"></rect><rect class="pixel l3" x="1209" y="52"></rect><rect class="pixel l3" x="13" y="65"></rect><rect class="pixel l3" x="1209" y="65"></rect><rect class="pixel l2" x="13" y="78"></rect><rect class="pixel l2" x="1209" y="78"></rect><rect class="pixel l1" x="26" y="39"></rect><rect class="pixel l1" x="1222" y="39"></rect><rect class="pixel l3" x="26" y="52"></rect><rect class="pixel l3" x="1222" y="52"></rect><rect class="pixel l1" x="26" y="65"></rect><rect class="pixel l1" x="1222" y="65"></rect><rect class="pixel l1" x="39" y="0"></rect><rect class="pixel l1" x="1235" y="0"></rect><rect class="pixel l3" x="39" y="13"></rect><rect class="pixel l3" x="1235" y="13"></rect><rect class="pixel l4" x="39" y="26"></rect><rect class="pixel l4" x="1235" y="26"></rect><rect class="pixel l3" x="39" y="39"></rect><rect class="pixel l3" x="1235" y="39"></rect><rect class="pixel l1" x="39" y="52"></rect><rect class="pixel l1" x="1235" y="52"></rect><rect class="pixel l2" x="39" y="65"></rect><rect class="pixel l2" x="1235" y="65"></rect><rect class="pixel l1" x="39" y="78"></rect><rect class="pixel l1" x="1235" y="78"></rect><rect class="pixel l3" x="65" y="39"></rect><rect class="pixel l3" x="1261" y="39"></rect><rect class="pixel l2" x="65" y="52"></rect><rect class="pixel l2" x="1261" y="52"></rect><rect class="pixel l3" x="65" y="65"></rect><rect class="pixel l3" x="1261" y="65"></rect><rect class="pixel l2" x="78" y="26"></rect><rect class="pixel l2" x="1274" y="26"></rect><rect class="pixel l2" x="78" y="52"></rect><rect class="pixel l2" x="1274" y="52"></rect><rect class="pixel l1" x="78" y="78"></rect><rect class="pixel l1" x="1274" y="78"></rect><rect class="pixel l4" x="91" y="39"></rect><rect class="pixel l4" x="1287" y="39"></rect><rect class="pixel l4" x="91" y="52"></rect><rect class="pixel l4" x="1287" y="52"></rect><rect class="pixel l2" x="91" y="78"></rect><rect class="pixel l2" x="1287" y="78"></rect><rect class="pixel l4" x="117" y="0"></rect><rect class="pixel l4" x="1313" y="0"></rect><rect class="pixel l3" x="130" y="0"></rect><rect class="pixel l3" x="1326" y="0"></rect><rect class="pixel l1" x="130" y="13"></rect><rect class="pixel l1" x="1326" y="13"></rect><rect class="pixel l1" x="130" y="26"></rect><rect class="pixel l1" x="1326" y="26"></rect><rect class="pixel l3" x="130" y="39"></rect><rect class="pixel l3" x="1326" y="39"></rect><rect class="pixel l2" x="130" y="52"></rect><rect class="pixel l2" x="1326" y="52"></rect><rect class="pixel l4" x="130" y="65"></rect><rect class="pixel l4" x="1326" y="65"></rect><rect class="pixel l4" x="130" y="78"></rect><rect class="pixel l4" x="1326" y="78"></rect><rect class="pixel l1" x="169" y="39"></rect><rect class="pixel l1" x="1365" y="39"></rect><rect class="pixel l4" x="169" y="52"></rect><rect class="pixel l4" x="1365" y="52"></rect><rect class="pixel l2" x="169" y="65"></rect><rect class="pixel l2" x="1365" y="65"></rect><rect class="pixel l3" x="182" y="26"></rect><rect class="pixel l3" x="1378" y="26"></rect><rect class="pixel l4" x="182" y="78"></rect><rect class="pixel l4" x="1378" y="78"></rect><rect class="pixel l1" x="195" y="26"></rect><rect class="pixel l1" x="1391" y="26"></rect><rect class="pixel l4" x="195" y="78"></rect><rect class="pixel l4" x="1391" y="78"></rect><rect class="pixel l2" x="221" y="39"></rect><rect class="pixel l2" x="1417" y="39"></rect><rect class="pixel l1" x="221" y="52"></rect><rect class="pixel l1" x="1417" y="52"></rect><rect class="pixel l4" x="221" y="65"></rect><rect class="pixel l4" x="1417" y="65"></rect><rect class="pixel l3" x="234" y="26"></rect><rect class="pixel l3" x="1430" y="26"></rect><rect class="pixel l2" x="234" y="78"></rect><rect class="pixel l2" x="1430" y="78"></rect><rect class="pixel l3" x="247" y="39"></rect><rect class="pixel l3" x="1443" y="39"></rect><rect class="pixel l3" x="247" y="52"></rect><rect class="pixel l3" x="1443" y="52"></rect><rect class="pixel l4" x="247" y="65"></rect><rect class="pixel l4" x="1443" y="65"></rect><rect class="pixel l4" x="273" y="26"></rect><rect class="pixel l4" x="1469" y="26"></rect><rect class="pixel l4" x="273" y="39"></rect><rect class="pixel l4" x="1469" y="39"></rect><rect class="pixel l3" x="273" y="52"></rect><rect class="pixel l3" x="1469" y="52"></rect><rect class="pixel l2" x="273" y="65"></rect><rect class="pixel l2" x="1469" y="65"></rect><rect class="pixel l2" x="273" y="78"></rect><rect class="pixel l2" x="1469" y="78"></rect><rect class="pixel l2" x="286" y="26"></rect><rect class="pixel l2" x="1482" y="26"></rect><rect class="pixel l2" x="286" y="39"></rect><rect class="pixel l2" x="1482" y="39"></rect><rect class="pixel l1" x="286" y="52"></rect><rect class="pixel l1" x="1482" y="52"></rect><rect class="pixel l4" x="286" y="65"></rect><rect class="pixel l4" x="1482" y="65"></rect><rect class="pixel l2" x="299" y="39"></rect><rect class="pixel l2" x="1495" y="39"></rect><rect class="pixel l4" x="299" y="52"></rect><rect class="pixel l4" x="1495" y="52"></rect><rect class="pixel l2" x="299" y="65"></rect><rect class="pixel l2" x="1495" y="65"></rect><rect class="pixel l3" x="299" y="78"></rect><rect class="pixel l3" x="1495" y="78"></rect><rect class="pixel l2" x="325" y="39"></rect><rect class="pixel l2" x="1521" y="39"></rect><rect class="pixel l3" x="325" y="52"></rect><rect class="pixel l3" x="1521" y="52"></rect><rect class="pixel l2" x="325" y="65"></rect><rect class="pixel l2" x="1521" y="65"></rect><rect class="pixel l2" x="338" y="26"></rect><rect class="pixel l2" x="1534" y="26"></rect><rect class="pixel l3" x="338" y="52"></rect><rect class="pixel l3" x="1534" y="52"></rect><rect class="pixel l2" x="338" y="78"></rect><rect class="pixel l2" x="1534" y="78"></rect><rect class="pixel l4" x="351" y="39"></rect><rect class="pixel l4" x="1547" y="39"></rect><rect class="pixel l2" x="351" y="52"></rect><rect class="pixel l2" x="1547" y="52"></rect><rect class="pixel l1" x="351" y="78"></rect><rect class="pixel l1" x="1547" y="78"></rect><rect class="pixel l4" x="429" y="26"></rect><rect class="pixel l4" x="1625" y="26"></rect><rect class="pixel l1" x="442" y="13"></rect><rect class="pixel l1" x="1638" y="13"></rect><rect class="pixel l2" x="442" y="26"></rect><rect class="pixel l2" x="1638" y="26"></rect><rect class="pixel l2" x="442" y="39"></rect><rect class="pixel l2" x="1638" y="39"></rect><rect class="pixel l3" x="442" y="52"></rect><rect class="pixel l3" x="1638" y="52"></rect><rect class="pixel l1" x="442" y="65"></rect><rect class="pixel l1" x="1638" y="65"></rect><rect class="pixel l2" x="442" y="78"></rect><rect class="pixel l2" x="1638" y="78"></rect><rect class="pixel l2" x="455" y="26"></rect><rect class="pixel l2" x="1651" y="26"></rect><rect class="pixel l2" x="455" y="78"></rect><rect class="pixel l2" x="1651" y="78"></rect><rect class="pixel l2" x="481" y="39"></rect><rect class="pixel l2" x="1677" y="39"></rect><rect class="pixel l3" x="481" y="52"></rect><rect class="pixel l3" x="1677" y="52"></rect><rect class="pixel l3" x="481" y="65"></rect><rect class="pixel l3" x="1677" y="65"></rect><rect class="pixel l2" x="494" y="26"></rect><rect class="pixel l2" x="1690" y="26"></rect><rect class="pixel l2" x="494" y="78"></rect><rect class="pixel l2" x="1690" y="78"></rect><rect class="pixel l3" x="507" y="39"></rect><rect class="pixel l3" x="1703" y="39"></rect><rect class="pixel l3" x="507" y="52"></rect><rect class="pixel l3" x="1703" y="52"></rect><rect class="pixel l3" x="507" y="65"></rect><rect class="pixel l3" x="1703" y="65"></rect><rect class="pixel l2" x="585" y="26"></rect><rect class="pixel l2" x="1781" y="26"></rect><rect class="pixel l4" x="585" y="39"></rect><rect class="pixel l4" x="1781" y="39"></rect><rect class="pixel l2" x="585" y="52"></rect><rect class="pixel l2" x="1781" y="52"></rect><rect class="pixel l3" x="585" y="65"></rect><rect class="pixel l3" x="1781" y="65"></rect><rect class="pixel l3" x="585" y="78"></rect><rect class="pixel l3" x="1781" y="78"></rect><rect class="pixel l1" x="598" y="26"></rect><rect class="pixel l1" x="1794" y="26"></rect><rect class="pixel l4" x="598" y="39"></rect><rect class="pixel l4" x="1794" y="39"></rect><rect class="pixel l2" x="598" y="52"></rect><rect class="pixel l2" x="1794" y="52"></rect><rect class="pixel l3" x="598" y="65"></rect><rect class="pixel l3" x="1794" y="65"></rect><rect class="pixel l3" x="611" y="39"></rect><rect class="pixel l3" x="1807" y="39"></rect><rect class="pixel l4" x="611" y="52"></rect><rect class="pixel l4" x="1807" y="52"></rect><rect class="pixel l2" x="611" y="65"></rect><rect class="pixel l2" x="1807" y="65"></rect><rect class="pixel l1" x="611" y="78"></rect><rect class="pixel l1" x="1807" y="78"></rect><rect class="pixel l2" x="637" y="26"></rect><rect class="pixel l2" x="1833" y="26"></rect><rect class="pixel l2" x="637" y="39"></rect><rect class="pixel l2" x="1833" y="39"></rect><rect class="pixel l4" x="637" y="78"></rect><rect class="pixel l4" x="1833" y="78"></rect><rect class="pixel l4" x="650" y="52"></rect><rect class="pixel l4" x="1846" y="52"></rect><rect class="pixel l2" x="650" y="78"></rect><rect class="pixel l2" x="1846" y="78"></rect><rect class="pixel l3" x="663" y="26"></rect><rect class="pixel l3" x="1859" y="26"></rect><rect class="pixel l3" x="663" y="39"></rect><rect class="pixel l3" x="1859" y="39"></rect><rect class="pixel l4" x="663" y="52"></rect><rect class="pixel l4" x="1859" y="52"></rect><rect class="pixel l1" x="663" y="65"></rect><rect class="pixel l1" x="1859" y="65"></rect><rect class="pixel l4" x="741" y="26"></rect><rect class="pixel l2" x="741" y="39"></rect><rect class="pixel l3" x="741" y="52"></rect><rect class="pixel l2" x="741" y="65"></rect><rect class="pixel l4" x="741" y="78"></rect><rect class="pixel l4" x="754" y="26"></rect><rect class="pixel l1" x="754" y="65"></rect><rect class="pixel l1" x="767" y="39"></rect><rect class="pixel l1" x="767" y="52"></rect><rect class="pixel l4" x="793" y="26"></rect><rect class="pixel l2" x="793" y="39"></rect><rect class="pixel l1" x="793" y="52"></rect><rect class="pixel l3" x="793" y="65"></rect><rect class="pixel l2" x="793" y="78"></rect><rect class="pixel l2" x="806" y="39"></rect><rect class="pixel l1" x="819" y="26"></rect><rect class="pixel l2" x="845" y="39"></rect><rect class="pixel l1" x="845" y="52"></rect><rect class="pixel l3" x="845" y="65"></rect><rect class="pixel l4" x="858" y="26"></rect><rect class="pixel l2" x="858" y="78"></rect><rect class="pixel l3" x="871" y="39"></rect><rect class="pixel l1" x="871" y="52"></rect><rect class="pixel l4" x="871" y="65"></rect><rect class="pixel l1" x="897" y="26"></rect><rect class="pixel l3" x="910" y="0"></rect><rect class="pixel l4" x="910" y="13"></rect><rect class="pixel l3" x="910" y="26"></rect><rect class="pixel l1" x="910" y="39"></rect><rect class="pixel l2" x="910" y="52"></rect><rect class="pixel l2" x="910" y="65"></rect><rect class="pixel l3" x="910" y="78"></rect><rect class="pixel l4" x="923" y="0"></rect><rect class="pixel l1" x="923" y="26"></rect><rect class="pixel l1" x="962" y="0"></rect><rect class="pixel l2" x="962" y="26"></rect><rect class="pixel l2" x="962" y="39"></rect><rect class="pixel l4" x="962" y="52"></rect><rect class="pixel l1" x="962" y="65"></rect><rect class="pixel l2" x="962" y="78"></rect><rect class="pixel l3" x="1001" y="0"></rect><rect class="pixel l4" x="1014" y="0"></rect><rect class="pixel l1" x="1014" y="13"></rect><rect class="pixel l3" x="1014" y="26"></rect><rect class="pixel l2" x="1014" y="39"></rect><rect class="pixel l1" x="1014" y="52"></rect><rect class="pixel l1" x="1014" y="65"></rect><rect class="pixel l2" x="1014" y="78"></rect><rect class="pixel l1" x="1053" y="39"></rect><rect class="pixel l3" x="1053" y="52"></rect><rect class="pixel l3" x="1053" y="65"></rect><rect class="pixel l4" x="1066" y="26"></rect><rect class="pixel l2" x="1066" y="52"></rect><rect class="pixel l4" x="1066" y="78"></rect><rect class="pixel l3" x="1079" y="39"></rect><rect class="pixel l2" x="1079" y="52"></rect><rect class="pixel l4" x="1079" y="78"></rect><rect class="pixel l2" x="1118" y="0"></rect><rect class="pixel l2" x="1118" y="13"></rect><rect class="pixel l4" x="1118" y="26"></rect><rect class="pixel l3" x="1118" y="39"></rect><rect class="pixel l3" x="1118" y="52"></rect><rect class="pixel l1" x="1118" y="78"></rect></g></svg><g transform="translate(13, 117)"><text font-size="13"></text></g><g transform="translate(621, 107)"><rect class="pixel l0" x="0" y="0"></rect><rect class="pixel l1" x="13" y="0"></rect><rect class="pixel l2" x="26" y="0"></rect><rect class="pixel l3" x="39" y="0"></rect><rect class="pixel l4" x="52" y="0"></rect></g></svg>